<svg version="1.1" id="Слой_1"
	 xmlns="http://www.w3.org/2000/svg"
	 x="0px" y="0px" width="577px" height="598px" viewBox="0 0 577 598" enable-background="new 0 0 577 598" xml:space="preserve">
<path fill="#FFFD51" d="M523.6,20.846c44.003,35.575,44.158,121.31,48.667,198.561c4.51,77.252,13.683,146.019-18.658,184.719
	c-32.186,38.7-105.887,47.333-180.365,88.265c-74.478,40.933-149.89,114.166-201.2,104.788
	c-51.466-9.526-78.832-101.513-112.417-179.36c-33.74-77.846-73.7-141.552-54.731-186.802
	c19.125-45.249,97.024-71.892,156.42-104.788c59.551-32.895,100.444-71.892,165.127-98.982
	C391.125,0.305,479.442-14.58,523.6,20.846L523.6,20.846z"/>
</svg>
