
<svg version="1.1" id="Слой_1"
	 xmlns="http://www.w3.org/2000/svg"
	 x="0px" y="0px" width="38px" height="37px" viewBox="0 0 38 37" enable-background="new 0 0 38 37" xml:space="preserve">
<path fill="#FEEC00" d="M32.34,0.732c3.543,0.773,5.484,5.538,5.648,9.943c0.165,4.396-1.436,8.453-2.215,13.37
	c-0.79,4.918-0.756,10.684-3.498,12.37c-2.752,1.686-8.268-0.696-12.983-1.817c-4.704-1.11-8.586-0.946-12.391-2.295
	c-3.816-1.35-7.534-4.21-6.81-7.257c0.735-3.046,5.91-6.288,6.93-11.314C8.052,8.706,4.916,1.896,6.133,0.362
	c1.217-1.523,6.788,2.23,12.139,2.513C23.634,3.147,28.788-0.05,32.34,0.732L32.34,0.732z"/>
</svg>
