<?xml version="1.0" encoding="utf-8"?>
<!-- Generator: Adobe Illustrator 17.0.0, SVG Export Plug-In . SVG Version: 6.00 Build 0)  -->
<!DOCTYPE svg PUBLIC "-//W3C//DTD SVG 1.1//EN" "http://www.w3.org/Graphics/SVG/1.1/DTD/svg11.dtd" [
	<!ENTITY ns_flows "http://ns.adobe.com/Flows/1.0/">
	<!ENTITY ns_extend "http://ns.adobe.com/Extensibility/1.0/">
	<!ENTITY ns_ai "http://ns.adobe.com/AdobeIllustrator/10.0/">
	<!ENTITY ns_graphs "http://ns.adobe.com/Graphs/1.0/">
]>
<svg version="1.1" id="Слой_1" xmlns:x="&ns_extend;" xmlns:i="&ns_ai;" xmlns:graph="&ns_graphs;"
	 xmlns="http://www.w3.org/2000/svg" xmlns:xlink="http://www.w3.org/1999/xlink" xmlns:a="http://ns.adobe.com/AdobeSVGViewerExtensions/3.0/"
	 x="0px" y="0px" width="461px" height="189px" viewBox="0 0 461 189" enable-background="new 0 0 461 189" xml:space="preserve">
<g>
	<path fill="none" d="M130.358,172.28c1.747,0.479,3.416,1.217,4.94,2.207v-5.849c-1.434,0.997-3.118,1.655-4.94,1.86V172.28z"/>
	<path fill="none" d="M118.337,159.76v-9.786c-1.528,0.436-3.129,0.689-4.78,0.751v21.824c0.43,0.86,0.771,1.773,0.993,2.734
		c0.141-0.005,0.278-0.007,0.416,0c3.104-2.383,6.806-3.64,10.732-3.64c0.752,0,1.498,0.063,2.237,0.158v-1.303
		C122.544,169.893,118.337,165.31,118.337,159.76z"/>
	<path fill="none" d="M106.404,149.715v14.237h-0.001v2.319c1.786,0.618,3.4,1.635,4.731,2.948V150.68
		C109.494,150.546,107.911,150.218,106.404,149.715z"/>
	<path fill="none" d="M286.451,161.345c-0.716-1.437-1.203-3.005-1.408-4.662h-19.323v1.938v2.725H286.451z"/>
	<polygon fill="none" points="397.173,182.73 397.173,186.577 406.471,186.577 406.471,182.271 397.173,182.271 	"/>
	<polygon fill="none" points="326.812,178.797 326.812,178.792 326.812,178.792 	"/>
	<path fill="none" d="M326.812,179.797c-1.173,0-2.295-0.22-3.341-0.604c1.005,0.439,1.923,1.044,2.701,1.81
		c0.76-0.24,1.553-0.398,2.367-0.469v-0.898c-0.531,0.094-1.071,0.155-1.621,0.161C326.914,179.796,326.815,179.797,326.812,179.797
		z"/>
	<rect x="265.721" y="169.404" fill="none" width="28.289" height="4.663"/>
	<path fill="none" d="M301.067,169.365v7.657c2.145,0.683,4.051,2.002,5.44,3.845c1.267-0.493,2.592-0.742,3.949-0.742
		c1.217,0,2.399,0.207,3.512,0.585c0.827-0.739,1.79-1.324,2.849-1.717v-6.526l-0.242-0.242c-0.828,0.523-1.783,0.813-2.787,0.813
		c-2.89,0-5.24-2.351-5.24-5.24c0-0.369,0.04-0.728,0.113-1.076C306.493,168.263,303.887,169.214,301.067,169.365z"/>
	<polygon fill="none" points="199.51,185.457 199.51,181.816 189.394,181.816 189.394,186.577 199.51,186.577 	"/>
	<path fill="none" d="M48.279,180.491c0.04-0.034,0.084-0.063,0.124-0.097h-0.513C48.02,180.43,48.152,180.448,48.279,180.491z"/>
	<path fill="none" d="M288.145,182.125h-22.424v3.332v1.12h21.066C286.919,184.971,287.394,183.462,288.145,182.125z"/>
	<path fill="none" d="M297.735,176.49c0.306,0,0.607,0.028,0.909,0.053v-7.178c-0.903-0.048-1.782-0.176-2.634-0.383v0.423v4.663
		v2.572C296.573,176.55,297.147,176.49,297.735,176.49z"/>
	<path fill="none" d="M320.551,177.508l-0.936,0.936c0.1-0.003,0.197-0.015,0.298-0.015c1.004,0,1.972,0.178,2.884,0.49
		C321.984,178.549,321.228,178.076,320.551,177.508z"/>
	<path fill="none" d="M44.15,180.389c-0.28-0.007-0.546-0.127-0.731-0.338c-0.19-0.219-0.276-0.51-0.235-0.796l3.029-21.427
		l-13.502,13.501v15.248h6.3C39.266,183.609,41.362,181.166,44.15,180.389z"/>
	<path fill="none" d="M249.365,153.471h1.028V91.683h10.481v61.788h4.664v-4.846h19.384v-2.461c0-0.75,0.075-1.482,0.185-2.202
		h-19.569v-8.058h23.648c1.366-1.363,3.005-2.447,4.822-3.182v-1.482h-28.471v-8.059h28.471v-4.662h-28.471v-8.058h28.471v-4.664
		h-28.471V97.74h27.53l-48.551-22.277v69.527h4.847V153.471z"/>
	<path fill="none" d="M35.604,165.01c-0.299,0.09-0.61,0.153-0.938,0.153h-1.955v2.74L35.604,165.01z"/>
	<path fill="#FFE000" d="M112.793,112.234c-3.701,0-7.143,1.114-10.024,3.014v4.3h3.634v4.846h0.001v13.229l1.517-1.517l3.213,3.212
		v-8.37h2.423v17.778c1.658-0.069,3.263-0.343,4.78-0.827v-11.493c0-5.961,4.85-10.811,10.81-10.811c0.421,0,0.834,0.03,1.242,0.077
		C128.264,117.939,121.191,112.234,112.793,112.234z"/>
	<path fill="#FFE000" d="M106.404,147.588c1.496,0.562,3.078,0.942,4.73,1.092v-5.937l-4.73-4.729V147.588z"/>
	<path fill="#FFE000" d="M35.952,161.877v-55.262c0-2.455-1.998-4.453-4.453-4.453s-4.453,1.998-4.453,4.453v55.262
		c0.001,0.709,0.578,1.286,1.286,1.286h6.333C35.375,163.163,35.952,162.586,35.952,161.877z"/>
	<path fill="#FFE000" d="M21.414,147.413v-29.741c0-0.535-0.435-0.97-0.969-0.97c-2.038,0-3.695,1.657-3.696,3.694v26.048
		c0,0.534,0.436,0.969,0.97,0.969H21.414z"/>
	<path fill="#FFE000" d="M49.885,131.854V122.2c0-1.027-0.836-1.863-1.864-1.863c-3.214,0-5.829,2.614-5.829,5.828v27.26
		c0,1.027,0.836,1.863,1.864,1.863h2.516L49.885,131.854z"/>
	<path fill="#FFE000" d="M53.043,178.395c0.386-0.049,0.775-0.083,1.17-0.083c0.175,0,0.346,0.016,0.518,0.026v-10.933v-6.664H62
		v-32.711v-0.316l-0.158-1.12L47.63,162.099l-2.303,16.296H53.043z"/>
	<polygon fill="#FFE000" points="48.806,153.777 61.28,122.617 57.245,94.073 54.602,112.77 	"/>
	<path fill="#FFE000" d="M129.147,127.594c-4.858,0-8.81,3.952-8.81,8.811v23.355c0,4.446,3.313,8.123,7.598,8.717v-7.782h2.423
		v7.782c1.909-0.264,3.624-1.136,4.94-2.421v-35.948C133.709,128.555,131.539,127.594,129.147,127.594z"/>
	<path fill="#FFE000" d="M316.817,166.677c-0.153-0.412-0.383-0.784-0.68-1.098c-1.115-0.176-2.19-0.47-3.201-0.893
		c-1.372,0.377-2.388,1.622-2.388,3.112c0,1.787,1.453,3.24,3.24,3.24c0.469,0,0.912-0.105,1.315-0.285l-2.013-2.013l1.713-1.712
		l1.985,1.985c0.012-0.03,0.018-0.062,0.029-0.092V166.677z"/>
	<path fill="#FFE000" d="M318.332,139.721c-0.325,0-0.645,0.023-0.963,0.049c-1.195,0.48-2.306,1.124-3.295,1.918
		c0.46,1.411,0.715,2.914,0.715,4.477v8.311l0.474-0.475l1.554,1.554v-0.478h2.423v8.646c0.033-0.003,0.067-0.002,0.1-0.005
		c1.8-2.13,4.486-3.49,7.471-3.49c0.001,0,0.019,0,0.033,0c0.646-0.648,1.209-1.377,1.695-2.158v-12.65
		C326.415,142.006,322.64,139.721,318.332,139.721z"/>
	<path fill="#FFE000" d="M313.293,161.278c1.031,0.972,2.218,1.779,3.524,2.374v-4.671l-2.168-2.168
		C314.439,158.397,313.973,159.897,313.293,161.278z"/>
	<path fill="#FFE000" d="M319.029,169.929v0.162c0.005,0.442,0.055,0.872,0.131,1.293l0.003,0.003l-0.002,0.002
		c0.192,1.06,0.595,2.046,1.171,2.912l5.243-5.242l1.713,1.713l-5.318,5.317c1.333,1.066,3.016,1.707,4.842,1.707v0.995c0,0,0,0,0,0
		l0.085-0.996c0.56-0.006,1.109-0.075,1.643-0.196v-15.171c-0.53-0.122-1.079-0.194-1.643-0.201h-0.001
		C322.565,162.229,319.074,165.683,319.029,169.929z"/>
	<path fill="#FFE000" d="M411.949,166.938c-0.977,0.305-2,0.499-3.054,0.587v12.746h5.507L411.949,166.938z"/>
	<path fill="#FFE000" d="M406.803,138.977l-4.27-23.202l-5.049,27.439C399.891,140.771,403.166,139.2,406.803,138.977z"/>
	<path fill="#FFE000" d="M405.166,176.585c-0.735,0.468-1.592,0.762-2.524,0.783c-0.008,0-0.105,0.001-0.112,0.001
		c-2.662,0-4.877-2.166-4.937-4.828v-0.217c0.043-2.68,2.259-4.86,4.938-4.86c1.642,0.026,3.049,0.8,3.94,1.979v-1.918
		c-3.667-0.309-6.937-2.006-9.298-4.562v7.652v2.846v6.811h9.298v-2.381L405.166,176.585z"/>
	<path fill="#FFE000" d="M189.394,113.517v28.5c1.52,1.551,2.461,3.671,2.461,6.009V166.1c0,2.338-0.941,4.458-2.461,6.009v7.708
		h4.129c-0.084-0.176-0.135-0.365-0.107-0.562l3.742-26.471l-7.248-42.271L189.394,113.517z"/>
	<polygon fill="#FFE000" points="200.279,144.99 214.673,144.99 207.476,94.073 	"/>
	<polygon fill="#FFE000" points="195.558,178.395 199.51,178.395 199.51,175.158 199.51,168.313 199.51,165.467 199.51,158.62 
		199.51,155.471 199.51,155.47 199.51,153.471 199.51,150.434 	"/>
	<rect x="260.875" y="175.158" fill="#FFF3D9" width="2.846" height="3.452"/>
	<rect x="260.875" y="165.467" fill="#FFF3D9" width="2.846" height="2.846"/>
	<rect x="244.519" y="165.467" fill="#FFF3D9" width="5.875" height="2.846"/>
	<path fill="#FFF3D9" d="M248.32,185.457c-0.302,0.404-0.638,0.778-1.007,1.12h16.408v-1.12H248.32z"/>
	<path fill="#FFF3D9" d="M247.986,175.158c0.838,0.98,1.447,2.157,1.754,3.452h0.653v-3.452H247.986z"/>
	<path fill="#FFF3D9" d="M236.089,186.577c-0.369-0.342-0.705-0.716-1.007-1.12H201.51v1.12H236.089z"/>
	<rect x="244.519" y="155.471" fill="#FFF3D9" width="5.875" height="3.149"/>
	<rect x="260.875" y="155.471" fill="#FFF3D9" width="2.846" height="3.149"/>
	<polygon fill="#FFF3D9" points="242.519,158.62 242.519,155.471 238.279,155.471 216.654,155.471 201.51,155.471 201.51,158.62 	
		"/>
	<rect x="201.51" y="165.467" fill="#FFF3D9" width="41.009" height="2.846"/>
	<path fill="#FFF3D9" d="M201.51,178.61h32.152c0.308-1.295,0.917-2.472,1.754-3.452H201.51V178.61z"/>
	<rect x="244.519" y="146.99" fill="#FFF3D9" width="2.847" height="6.479"/>
	<rect x="240.279" y="146.991" fill="#FFF3D9" width="1.635" height="6.479"/>
	<polygon fill="#FFF3D9" points="201.51,146.99 201.51,149.231 216.654,149.231 216.654,153.47 238.279,153.47 238.279,146.99 	"/>
	<rect x="260.875" y="160.62" fill="#FFF3D9" width="2.846" height="2.847"/>
	<rect x="244.519" y="160.62" fill="#FFF3D9" width="5.875" height="2.847"/>
	<rect x="201.51" y="160.62" fill="#FFF3D9" width="41.009" height="2.847"/>
	<path fill="#FFF3D9" d="M244.519,170.313v2.442c0.32,0.117,0.632,0.25,0.932,0.404h4.943v-2.846H244.519z"/>
	<rect x="260.875" y="170.313" fill="#FFF3D9" width="2.846" height="2.846"/>
	<path fill="#FFF3D9" d="M237.952,173.158c1.127-0.576,2.399-0.908,3.75-0.908c0.276,0,0.548,0.015,0.817,0.041v-1.979H201.51v2.846
		H237.952z"/>
	<path fill="#FFF3D9" d="M263.721,180.61h-2.846v1.515h-10.481v-1.515h-0.427c-0.011,1.002-0.206,1.959-0.545,2.847h14.298V180.61z"
		/>
	<path fill="#FFF3D9" d="M233.979,183.457c-0.339-0.887-0.533-1.844-0.544-2.847H201.51v2.847H233.979z"/>
	<polygon fill="#FFF3D9" points="201.51,153.47 201.51,153.471 214.654,153.471 214.654,151.231 201.51,151.231 	"/>
	<path d="M34.529,69.058H47.25c0.669,0,1.211-0.542,1.211-1.212c0.003-2.006,1.629-3.632,3.635-3.634
		c0.153,0.001,0.306,0.012,0.457,0.033c0.047,0.006,0.095,0.009,0.143,0.009c0.672,0.002,1.218-0.54,1.22-1.212
		c0-0.009,0-0.017,0-0.026c-0.005-3.349,2.706-6.068,6.055-6.073c3.344,0.003,6.054,2.713,6.058,6.057
		c0,0.669,0.542,1.211,1.211,1.212h7.875c0.669,0,1.212-0.543,1.212-1.212s-0.543-1.212-1.212-1.212h-6.749
		c-0.59-4.103-4.13-7.269-8.395-7.269c-4.272,0-7.818,3.177-8.397,7.292c-2.672,0.235-4.873,2.196-5.414,4.824H34.529
		c-0.023-0.001-0.047-0.001-0.07,0c-0.669,0.019-1.196,0.577-1.177,1.246C33.302,68.55,33.86,69.077,34.529,69.058z"/>
	<path d="M103.586,24.231h18.019c0.199,0,0.395-0.049,0.57-0.142c0.59-0.314,0.814-1.048,0.5-1.638
		c-0.608-1.143-0.916-2.379-0.916-3.672c0-4.342,3.533-7.875,7.875-7.875c3.205-0.007,6.092,1.937,7.292,4.909
		c0.037,0.091,0.086,0.177,0.144,0.256c0.397,0.541,1.157,0.658,1.698,0.262c1.49-1.116,3.415-1.471,5.205-0.96
		c0.404,0.111,0.837,0.007,1.145-0.277c1.237-1.139,2.838-1.767,4.507-1.767c0.279,0.002,0.558,0.022,0.835,0.059
		c0.615,0.078,1.189-0.322,1.33-0.926c1.366-5.893,6.626-10.058,12.676-10.037c5.886,0,11.059,3.967,12.579,9.646
		c-0.299,0.305-0.416,0.745-0.306,1.158c0.172,0.646,0.834,1.03,1.48,0.859c0.646-0.172,1.03-0.834,0.859-1.48
		c2.214-2.259,5.245-3.528,8.408-3.52c5.165-0.016,9.736,3.338,11.27,8.27c0.149,0.475,0.573,0.81,1.07,0.845
		c3.008,0.225,5.567,2.277,6.44,5.164c0.157,0.526,0.638,0.866,1.16,0.866c0.117,0,0.234-0.017,0.346-0.05
		c0.641-0.191,1.007-0.866,0.816-1.508c-1.065-3.572-4.135-6.219-7.78-6.796c-2.08-5.543-7.338-9.213-13.323-9.213
		c-3.152-0.009-6.217,1.037-8.705,2.972c-2.371-5.822-8.028-9.63-14.314-9.636c-6.858,0-12.789,4.434-14.764,10.904
		c-2.079-0.018-4.101,0.681-5.725,1.979c-1.841-0.369-3.753-0.106-5.427,0.744c-1.822-3.166-5.186-5.146-8.916-5.146
		c-5.678,0-10.298,4.62-10.298,10.298c0.001,1.027,0.156,2.048,0.46,3.029h-16.21c-0.669,0-1.211,0.542-1.211,1.211
		C102.375,23.689,102.917,24.231,103.586,24.231z"/>
	<path d="M78.75,62.999c0,0.669,0.542,1.212,1.211,1.213h6.664c0.669,0,1.211-0.542,1.211-1.211c0-0.669-0.542-1.212-1.211-1.213
		h-6.664C79.292,61.788,78.75,62.331,78.75,62.999z"/>
	<path d="M56.336,24.231h23.02c0.669,0,1.211-0.542,1.211-1.212c0-0.669-0.542-1.211-1.211-1.211h-23.02
		c-0.642,0.018-1.158,0.535-1.177,1.177C55.14,23.654,55.667,24.212,56.336,24.231z"/>
	<path d="M230.193,24.231h16.355c0.023,0.001,0.046,0.001,0.07,0c0.669-0.019,1.196-0.577,1.177-1.246
		c-0.019-0.669-0.577-1.196-1.246-1.177h-16.355c-0.023-0.001-0.046-0.001-0.07,0c-0.669,0.019-1.196,0.577-1.177,1.246
		C228.966,23.723,229.524,24.25,230.193,24.231z"/>
	<path d="M334.385,50.885h14.538c0.023,0.001,0.046,0.001,0.07,0c0.669-0.019,1.196-0.577,1.177-1.246
		c-0.019-0.669-0.577-1.196-1.246-1.177h-14.538c-0.669,0-1.211,0.542-1.211,1.212C333.174,50.343,333.716,50.885,334.385,50.885z"
		/>
	<path d="M316.341,88.657c0.013,0,1.33,0.089,2.043,0.95c0.458,0.553,0.608,1.367,0.448,2.42c-0.009,0.06-0.014,0.122-0.014,0.183
		c0,0.669,0.543,1.211,1.212,1.21c0.429,0,0.839-0.228,1.059-0.62c0.515-0.924,1.128-1.475,1.82-1.634
		c1.099-0.256,2.184,0.479,2.219,0.502c0.529,0.345,1.235,0.225,1.621-0.274c0.41-0.53,0.313-1.292-0.217-1.702
		c-0.197-0.141-1.996-1.372-4.137-0.894c-0.496,0.11-0.961,0.3-1.393,0.57c-0.176-0.477-0.427-0.913-0.75-1.303
		c-1.396-1.689-3.574-1.819-3.818-1.829c-0.669-0.026-1.231,0.495-1.257,1.164C315.151,88.069,315.672,88.631,316.341,88.657z"/>
	<path d="M382.846,6.664h6.664c0.669,0,1.211-0.542,1.211-1.211c0-0.669-0.542-1.211-1.211-1.211h-6.664
		c-0.669,0-1.211,0.542-1.211,1.211C381.635,6.122,382.177,6.664,382.846,6.664z"/>
	<path d="M318.028,50.885h6.058c0.669,0,1.211-0.542,1.211-1.211c0-0.669-0.542-1.212-1.211-1.212h-6.058
		c-0.669,0-1.211,0.542-1.211,1.212C316.817,50.343,317.359,50.885,318.028,50.885z"/>
	<path d="M366.49,6.664h6.058c0.023,0.001,0.046,0.001,0.07,0c0.669-0.019,1.196-0.577,1.177-1.246
		c-0.019-0.669-0.577-1.196-1.246-1.177h-6.058c-0.669,0-1.211,0.542-1.211,1.211C365.279,6.122,365.821,6.664,366.49,6.664z"/>
	<path d="M1.211,69.058h6.058c0.023,0.001,0.046,0.001,0.07,0c0.669-0.019,1.196-0.577,1.177-1.246
		c-0.019-0.669-0.577-1.196-1.246-1.177H1.211C0.542,66.635,0,67.177,0,67.846S0.542,69.058,1.211,69.058z"/>
	<path d="M450.14,39.981c-0.405,0-0.813,0.023-1.221,0.073c-2.268-6.517-8.47-10.977-15.45-10.977
		c-6.199,0-11.894,3.58-14.637,9.054c-1.767-1.159-3.834-1.785-5.963-1.785c-3.106-0.011-6.067,1.317-8.124,3.645
		c-1.086-0.409-2.221-0.616-3.387-0.616c-5.14,0-9.359,4.024-9.673,9.087h-23.983c-0.023-0.001-0.046-0.001-0.07,0
		c-0.669,0.019-1.196,0.577-1.177,1.246c0.019,0.669,0.577,1.196,1.246,1.177h25.206c0.029,0,0.059-0.001,0.088-0.003
		c0.667-0.048,1.169-0.628,1.121-1.295l-0.005-0.06c-0.01-0.152-0.022-0.305-0.022-0.459c0-4.01,3.261-7.27,7.268-7.27
		c1.114,0,2.212,0.258,3.209,0.755c0.524,0.259,1.158,0.107,1.508-0.362c1.622-2.174,4.099-3.422,6.794-3.422
		c2.083,0.003,4.092,0.773,5.643,2.163c0.111,0.1,0.24,0.178,0.379,0.231c0.624,0.236,1.322-0.078,1.559-0.703
		c2.049-5.36,7.281-8.96,13.019-8.96c6.26,0,11.788,4.213,13.439,10.245c0.171,0.624,0.802,1.004,1.433,0.862
		c0.603-0.135,1.209-0.203,1.799-0.203c4.243,0,7.749,3.175,8.153,7.385c0.06,0.621,0.581,1.095,1.205,1.096
		c0.039,0,0.078-0.002,0.117-0.006c0.666-0.064,1.154-0.656,1.09-1.322C460.181,44.098,455.638,39.981,450.14,39.981z"/>
	<path fill="#FFE000" d="M125.715,173.644c-3.613,0-6.998,1.189-9.804,3.44c-0.193,0.155-0.436,0.234-0.685,0.218l-0.129-0.008
		c-0.374-0.024-0.764-0.009-1.229,0.051c-0.545,0.071-1.036-0.304-1.118-0.841c-0.56-3.683-3.059-6.701-6.346-8.089v12.436
		c1.614-1.514,3.774-2.422,6.106-2.422c3.796,0,7.04,2.382,8.335,5.727c1.584-1.428,3.664-2.265,5.886-2.265
		c1.051,0,2.081,0.187,3.066,0.555c1.147-0.449,2.383-0.618,3.615-0.513c0.176-0.158,0.359-0.307,0.548-0.445
		c0.382-0.638,0.827-1.225,1.339-1.744v-2.788C132.565,174.824,129.192,173.644,125.715,173.644z"/>
	<path fill="#FFE000" d="M316.008,181.642c1.688,0.992,3.105,2.428,4.071,4.181c1.003-1.673,2.411-3.023,4.071-3.947
		c-1.183-0.914-2.66-1.448-4.237-1.448C318.465,180.429,317.122,180.88,316.008,181.642z"/>
	<path fill="#FFE000" d="M294.01,186.577v-4.452h-3.494c-0.944,1.269-1.555,2.796-1.723,4.452H294.01z"/>
	<path fill="#FFE000" d="M298.644,178.548c-0.301-0.03-0.602-0.057-0.909-0.057c-0.59,0-1.167,0.057-1.726,0.166v3.469v4.452h2.634
		V178.548z"/>
	<path fill="#FFE000" d="M318.195,186.577c-1.594-2.712-4.52-4.452-7.739-4.452c-1.34,0-2.643,0.298-3.871,0.887
		c-0.457,0.219-1.002,0.062-1.273-0.363c-1.038-1.62-2.527-2.832-4.245-3.518v7.447H318.195z"/>
	<path fill="#FFE000" d="M54.731,186.788v-4.663v-1.789c-0.17-0.012-0.341-0.024-0.514-0.024c-1.892,0.001-3.674,0.729-5.022,2.051
		c-0.294,0.288-0.735,0.365-1.109,0.199c-0.646-0.29-1.335-0.437-2.046-0.437c-2.656,0-4.841,2.058-5.043,4.663H54.731z"/>
	<path fill="#FFE000" d="M131.83,183.977c-0.552,0.083-1.096,0.226-1.611,0.46c-0.256,0.116-0.55,0.118-0.809,0.009
		c-0.856-0.368-1.757-0.555-2.68-0.555c-2.113,0-4.055,0.983-5.323,2.59c0.01,0.101,0.009,0.205,0.016,0.307h9.655
		C131.131,185.796,131.386,184.843,131.83,183.977z"/>
	<polygon fill="#FFF8E6" points="78.961,123.182 78.961,119.548 82.596,119.548 82.596,112.279 100.769,112.279 100.769,108.221 
		74.904,108.221 74.904,123.182 	"/>
	<path fill="#FFF8E6" d="M80.961,181.74c1.739-1.542,4.016-2.475,6.468-2.475c0.412,0,0.82,0.034,1.225,0.086v-54.956h7.452v56.161
		c0.239-0.02,0.479-0.038,0.72-0.038c2.866,0,5.566,1.43,7.183,3.769c0.037,0.002,0.075,0.004,0.112,0.006
		c0.079-0.215,0.188-0.412,0.282-0.618v-19.722h-4.845v-39.559h4.845v-2.846h-1.634H82.596h-1.635v1.634v39.559h-8.48H62h-5.269
		v4.664h24.23V181.74z"/>
	<path fill="#FFF8E6" d="M77.924,186.788c0.428-1.805,1.362-3.405,2.629-4.663H56.731v4.663h4.629H77.924z"/>
	<polygon fill="#FFF8E6" points="64,125.182 64,128.029 72.481,128.029 72.481,160.74 78.961,160.74 78.961,125.182 	"/>
	<path fill="#FFF3D9" d="M78.961,169.404H65.423v10.721h13.538V169.404z M74.76,172.895l-5.15,5.15
		c-0.227,0.227-0.534,0.354-0.855,0.354v0.001c-0.669,0-1.212-0.543-1.212-1.212c0-0.321,0.128-0.63,0.355-0.857l5.149-5.15
		c0.473-0.473,1.24-0.473,1.714,0.001C75.234,171.655,75.233,172.422,74.76,172.895z"/>
	<rect x="56.731" y="169.404" fill="#FFF3D9" width="6.269" height="10.721"/>
	<path fill="#FFF3D9" d="M94.106,126.395h-3.452v53.425c0.258,0.091,0.512,0.193,0.762,0.305h2.69V126.395z"/>
	<rect x="101.558" y="126.394" fill="#FFF3D9" width="2.846" height="9.298"/>
	<rect x="101.558" y="138.115" fill="#FFF3D9" width="2.846" height="11.51"/>
	<rect x="101.558" y="152.048" fill="#FFF3D9" width="2.846" height="9.904"/>
	<rect x="64" y="150.837" fill="#FFF3D9" width="6.481" height="9.903"/>
	<path fill="#FFF3D9" d="M64,130.029v18.384h6.481v-18.384H64z M67.596,133.625c0.485-0.46,1.252-0.44,1.712,0.046
		c0.443,0.467,0.443,1.199,0,1.666l-2.12,2.121c-0.227,0.227-0.535,0.355-0.856,0.355c-0.668,0.002-1.211-0.539-1.213-1.207
		c-0.001-0.323,0.128-0.633,0.357-0.861L67.596,133.625z"/>
	<rect x="98.135" y="114.279" fill="#FFF3D9" width="2.634" height="5.269"/>
	<path fill="#FFF3D9" d="M84.596,114.279v5.269h11.116v-5.269H84.596z M90.814,118.679c-0.227,0.227-0.536,0.354-0.857,0.354
		c-0.668,0.001-1.211-0.54-1.212-1.208c0-0.322,0.128-0.631,0.356-0.859l2.12-2.12c0.473-0.473,1.239-0.473,1.713-0.001
		c0.473,0.473,0.473,1.24,0,1.713L90.814,118.679z"/>
	<path d="M73.047,171.181l-5.149,5.15c-0.227,0.227-0.355,0.536-0.355,0.857c0,0.669,0.543,1.212,1.212,1.212v-0.001
		c0.321,0,0.628-0.127,0.855-0.354l5.15-5.15c0.473-0.473,0.474-1.24,0-1.714C74.287,170.708,73.52,170.708,73.047,171.181z"/>
	<path d="M65.119,136.606c0.002,0.668,0.545,1.209,1.213,1.207c0.321,0,0.629-0.128,0.856-0.355l2.12-2.121
		c0.443-0.467,0.443-1.199,0-1.666c-0.46-0.485-1.227-0.506-1.712-0.046l-2.12,2.12C65.247,135.973,65.118,136.283,65.119,136.606z"
		/>
	<path d="M92.934,114.845c-0.473-0.473-1.24-0.473-1.713,0.001l-2.12,2.12c-0.228,0.227-0.356,0.537-0.356,0.859
		c0.001,0.668,0.544,1.209,1.212,1.208c0.321,0,0.63-0.127,0.857-0.354l2.12-2.121C93.407,116.085,93.407,115.318,92.934,114.845z"
		/>
	<polygon fill="#FFF3D9" points="291.586,87.02 275.836,87.02 275.836,77.145 291.586,77.145 291.586,68.775 267.538,79.401 
		267.538,83.564 291.586,94.75 	"/>
	<rect x="252.394" y="115.702" fill="#FFF3D9" width="6.481" height="36.952"/>
	<rect x="252.394" y="93.683" fill="#FFF3D9" width="6.481" height="19.596"/>
	<rect x="252.394" y="155.077" fill="#FFF3D9" width="6.481" height="25.048"/>
	<rect x="267.539" y="176.067" fill="#FFF3D9" width="3.846" height="4.058"/>
	<rect x="273.808" y="176.067" fill="#FFF3D9" width="20.202" height="4.058"/>
	<path fill="#FFF3D9" d="M287.656,163.345h-20.117v4.06h24.571C290.357,166.374,288.84,164.99,287.656,163.345z"/>
	<rect x="267.539" y="150.625" fill="#FFF3D9" width="15.961" height="4.058"/>
	<rect x="276.231" y="137.904" fill="#FFF3D9" width="7.269" height="4.058"/>
	<path fill="#FFF3D9" d="M285.923,137.904v3.006c0.417-1.069,0.952-2.077,1.598-3.006H285.923z"/>
	<rect x="267.539" y="137.904" fill="#FFF3D9" width="6.269" height="4.058"/>
	<rect x="267.539" y="125.182" fill="#FFF3D9" width="3.846" height="4.059"/>
	<rect x="273.808" y="125.182" fill="#FFF3D9" width="20.202" height="4.059"/>
	<rect x="285.923" y="112.462" fill="#FFF3D9" width="8.087" height="4.058"/>
	<rect x="267.539" y="112.462" fill="#FFF3D9" width="15.961" height="4.058"/>
	<rect x="267.539" y="99.74" fill="#FFF3D9" width="8.843" height="4.058"/>
	<rect x="278.805" y="99.74" fill="#FFF3D9" width="15.205" height="4.058"/>
	<rect x="277.836" y="79.145" fill="#FFF3D9" width="13.75" height="5.875"/>
	<polygon fill="#FFF3D9" points="342.654,140.75 342.654,155.288 344.894,155.288 344.894,122.577 366.885,122.577 366.885,144.991 
		371.548,144.991 371.548,120.337 360.221,120.337 349.135,120.337 337.019,120.337 336.596,120.337 336.596,140.75 	"/>
	<rect x="346.894" y="124.577" fill="#FFF3D9" width="8.087" height="7.48"/>
	<rect x="357.404" y="124.577" fill="#FFF3D9" width="7.481" height="7.48"/>
	<rect x="346.894" y="134.48" fill="#FFF3D9" width="8.087" height="10.299"/>
	<rect x="357.404" y="134.48" fill="#FFF3D9" width="7.481" height="10.299"/>
	<rect x="346.894" y="147.202" fill="#FFF3D9" width="8.087" height="8.086"/>
	<rect x="357.404" y="147.202" fill="#FFF3D9" width="2.634" height="8.086"/>
	<path fill="#FFF3D9" d="M395.173,182.73h-20.41c0.998,1.18,1.788,2.548,2.308,4.058h18.101V182.73z"/>
	<path fill="#FFF3D9" d="M386.27,157.288h-19.385h-2h-19.991h-2.239v18.785c1.556-1.017,3.357-1.658,5.269-1.834v-0.778h47.25
		v-2.846h-47.25v-9.271h47.25v-1.122c-0.515-0.921-0.927-1.904-1.23-2.935H386.27z"/>
	<path fill="#FFF3D9" d="M330.539,142.75v37.783c1.009,0.092,1.99,0.322,2.935,0.687c1.63-0.659,3.412-0.876,5.155-0.638
		c0.534-1.066,1.223-2.021,2.025-2.853v-22.44V142.75H330.539z M339.019,179.702h-6.846v-6.847h6.846V179.702z M339.019,170.01
		h-6.846v-6.847h6.846V170.01z M339.019,160.317h-6.846v-6.848h6.846V160.317z M339.019,143.779v6.846h-6.846v-6.846H339.019z"/>
	<polygon fill="#FFF3D9" points="365.885,146.991 365.885,147.202 362.038,147.202 362.038,154.683 364.885,154.683 
		364.885,150.442 386.27,150.442 386.27,154.683 389.115,154.683 389.115,146.991 	"/>
	<rect x="334.173" y="145.779" fill="#FFF3D9" width="2.846" height="2.846"/>
	<path d="M332.173,143.779v6.846h6.846v-6.846H332.173z M337.019,148.625h-2.846v-2.846h2.846V148.625z"/>
	<rect x="334.173" y="155.47" fill="#FFF3D9" width="2.846" height="2.848"/>
	<path d="M332.173,153.47v6.848h6.846v-6.848H332.173z M337.019,158.317h-2.846v-2.848h2.846V158.317z"/>
	<rect x="334.173" y="165.163" fill="#FFF3D9" width="2.846" height="2.847"/>
	<path d="M332.173,163.163v6.847h6.846v-6.847H332.173z M337.019,168.01h-2.846v-2.847h2.846V168.01z"/>
	<rect x="334.173" y="174.855" fill="#FFF3D9" width="2.846" height="2.847"/>
	<path d="M332.173,172.855v6.847h6.846v-6.847H332.173z M337.019,177.702h-2.846v-2.847h2.846V177.702z"/>
	<rect x="366.885" y="152.442" fill="#FFF3D9" width="17.385" height="2.846"/>
	<rect x="349.923" y="163.345" fill="#FFF3D9" width="45.25" height="5.271"/>
	<path fill="#FFF3D9" d="M395.173,175.461h-28.297c0.868,0.893,1.595,2.041,2.118,3.373c1.316,0.433,2.547,1.076,3.647,1.896h22.532
		V175.461z"/>
	<path fill="#FFF3D9" d="M356.863,177.271c0.398-0.684,0.86-1.288,1.368-1.81h-3.967
		C355.207,175.943,356.083,176.546,356.863,177.271z"/>
	<rect x="339.019" y="113.673" fill="#FFF3D9" width="10.116" height="4.664"/>
	<rect x="351.135" y="113.673" fill="#FFF3D9" width="7.086" height="4.664"/>
	<polygon fill="#FFF3D9" points="151.048,73.509 153.048,73.509 157.711,73.509 157.711,69.27 187.394,69.27 187.394,67.029 
		157.711,67.029 157.711,60.788 187.394,60.788 187.394,58.548 149.414,58.548 149.414,73.509 	"/>
	<path fill="#FFF3D9" d="M187.394,173.63c-0.888,0.489-1.874,0.818-2.918,0.966v12.192h2.918V173.63z"/>
	<rect x="163.346" y="140.933" fill="#FFF3D9" width="8.298" height="19.808"/>
	<path fill="#FFF3D9" d="M137.298,180.176c0.27-0.031,0.542-0.051,0.817-0.051c0.77,0,1.521,0.123,2.241,0.366
		c0.127-0.108,0.262-0.206,0.394-0.307V162.74v-2v-19.808v-2.001v-19.807v-2V97.317v-2V75.51h-3.452V180.176z"/>
	<path fill="#FFF3D9" d="M182.053,184.548h-8.409h-2h-8.298h-2h-6.367c0.242,0.712,0.397,1.462,0.457,2.24h6.245h20.372V184.548z"/>
	<path fill="#FFF3D9" d="M187.394,75.933V75.51h-3.452v19.808v2v19.808v2v19.807v0.536c1.243,0.098,2.413,0.455,3.452,1.028V75.933z
		"/>
	<rect x="142.75" y="75.509" fill="#FFF3D9" width="8.298" height="19.809"/>
	<polygon fill="#FFF3D9" points="161.346,75.51 157.711,75.51 157.711,75.509 153.048,75.509 153.048,95.317 161.346,95.317 	"/>
	<rect x="163.346" y="75.51" fill="#FFF3D9" width="8.298" height="19.808"/>
	<rect x="173.644" y="75.51" fill="#FFF3D9" width="8.298" height="19.808"/>
	<rect x="142.75" y="97.317" fill="#FFF3D9" width="8.298" height="19.808"/>
	<rect x="153.048" y="97.317" fill="#FFF3D9" width="8.298" height="19.808"/>
	<rect x="163.346" y="97.317" fill="#FFF3D9" width="8.298" height="19.808"/>
	<rect x="173.644" y="97.317" fill="#FFF3D9" width="8.298" height="19.808"/>
	<rect x="142.75" y="119.125" fill="#FFF3D9" width="8.298" height="19.807"/>
	<rect x="153.048" y="119.125" fill="#FFF3D9" width="8.298" height="19.807"/>
	<rect x="163.346" y="119.125" fill="#FFF3D9" width="8.298" height="19.807"/>
	<rect x="173.644" y="119.125" fill="#FFF3D9" width="8.298" height="19.807"/>
	<polygon fill="#FFF3D9" points="151.048,140.933 151.048,140.932 142.75,140.932 142.75,160.74 151.048,160.74 	"/>
	<polygon fill="#FFF3D9" points="161.346,140.933 161.346,140.932 153.048,140.932 153.048,140.933 153.048,160.74 161.346,160.74 	
		"/>
	<path fill="#FFF3D9" d="M178.426,140.932h-4.782v0.001v19.808h1.03v-12.714C174.674,145.082,176.163,142.481,178.426,140.932z"/>
	<path fill="#FFF3D9" d="M142.75,179.029c1.108-0.464,2.305-0.717,3.54-0.717c1.743,0,3.368,0.497,4.758,1.343V162.74h-8.298
		V179.029z"/>
	<path fill="#FFF3D9" d="M153.048,181.298c0.356,0.388,0.681,0.805,0.967,1.25h7.332V162.74h-8.298V181.298z"/>
	<rect x="163.346" y="162.74" fill="#FFF3D9" width="8.298" height="19.808"/>
	<path fill="#FFF3D9" d="M181.942,174.578c-4.11-0.64-7.268-4.193-7.268-8.479v-3.359h-1.03v19.808h8.298V174.578z"/>
	<rect x="159.711" y="62.788" fill="#FFF3D9" width="27.683" height="2.241"/>
	<rect x="159.711" y="71.27" fill="#FFF3D9" width="27.683" height="2.24"/>
	<path fill="#FFE000" d="M420.01,153.26c0-6.797-5.53-12.327-12.327-12.327s-12.326,5.53-12.326,12.327
		c0,6.388,4.884,11.655,11.115,12.266v-11.66h2.424v4.883l1.675-1.675l1.713,1.713l-3.388,3.388v3.35
		C415.125,164.914,420.01,159.647,420.01,153.26z"/>
	<path fill="#FFE000" d="M402.598,175.368c0.388-0.009,0.763-0.093,1.108-0.243l-1.813-1.813l1.713-1.713l1.717,1.717
		c0.096-0.305,0.155-0.622,0.147-0.951c-0.024-1.604-1.294-2.875-2.891-2.899h-0.001c-1.642,0-2.959,1.297-2.984,2.893v0.145
		c0.035,1.578,1.353,2.867,2.937,2.867v1L402.598,175.368z"/>
	<path d="M408.895,182.271h6.708c0.297,0,0.578-0.132,0.769-0.36c0.189-0.228,0.269-0.528,0.215-0.82l-2.745-14.915
		c4.822-2.309,8.168-7.222,8.168-12.916c0-7.51-5.811-13.676-13.171-14.269l-5.323-28.922c-0.087-0.475-0.501-0.819-0.983-0.819
		s-0.896,0.345-0.983,0.819l-6.834,37.139c-0.863,1.841-1.359,3.887-1.359,6.051c0,0.353,0.028,0.699,0.053,1.046l-0.181,0.982
		h-2.113v-10.297h-17.567v-26.654h-13.327v-6.664h-11.086h-12.116v6.664h-2.423v22.413h-6.057v1.407
		c-2.56-2.724-6.183-4.436-10.207-4.436c-1.966,0-3.836,0.41-5.535,1.143c-2.519-4.299-7.176-7.2-12.508-7.2h-0.866
		c-1.177,0-2.316,0.156-3.413,0.423v-0.846v-8.059v-4.662v-8.058v-4.664V97.74v-0.852l-2.424-1.112V87.02v-9.875v-11.44
		l-28.048,12.394v4.808l-23.02-10.562v72.646h-25.826l-8.227-58.202c-0.07-0.493-0.492-0.86-0.99-0.86s-0.92,0.367-0.99,0.86
		l-8.411,59.508l-7.18-41.87c-0.083-0.48-0.499-0.831-0.986-0.831c-0.19,0-0.362,0.066-0.515,0.16V77.933V75.51v-2v-4.24v-2.241
		v-6.241v-4.24h-41.98v16.961h-6.664v0.001h-5.452v54.016c-0.829-0.577-1.744-1.036-2.719-1.364
		c-1.993-9.095-10.102-15.927-19.786-15.927c-3.648,0-7.064,0.982-10.024,2.676v-0.631v-6.059H72.904v16.961h-9.524l-0.082-0.581
		c0,0,0,0,0,0l-5.062-35.814c-0.07-0.493-0.492-0.86-0.99-0.86s-0.92,0.367-0.99,0.86l-2.626,18.578l-2.143,15.16
		c-0.627-1.289-1.939-2.187-3.466-2.187c-4.316,0-7.828,3.512-7.828,7.828v27.261c0,1.903,1.387,3.479,3.201,3.795l-5.594,5.594
		c0.09-0.299,0.153-0.61,0.153-0.938v-55.262c0-3.559-2.895-6.453-6.453-6.453s-6.453,2.895-6.453,6.453v46.049l-3.251-3.251h0.618
		c0.552,0,1-0.447,1-1v-30.741c0-1.638-1.333-2.97-2.971-2.97c-3.139,0-5.693,2.555-5.694,5.694v26.049
		c0.001,1.637,1.333,2.968,2.97,2.968h0.649l6.679,6.679v5.788c0.002,1.811,1.477,3.283,3.286,3.283l0.002-1v1h1.953v10.008
		l-4.292-4.292l-1.713,1.713l5.755,5.755l0.25-0.25v8.48H0V189h436.154v-2.423h-27.259V182.271z M16.749,146.444v-26.048
		c0-2.037,1.658-3.694,3.696-3.694c0.535,0,0.969,0.435,0.969,0.97v29.741h-3.695C17.185,147.413,16.749,146.979,16.749,146.444z
		 M406.471,186.577h-9.298v-3.846v-0.459h9.298V186.577z M42.192,153.425v-27.26c0-3.214,2.615-5.828,5.829-5.828
		c1.027,0,1.863,0.836,1.864,1.863v9.654l-3.312,23.434h-2.516C43.028,155.288,42.192,154.452,42.192,153.425z M100.769,108.221
		v4.059H82.596v7.269h-3.635v3.634h-4.057v-14.961H100.769z M137.298,75.51h3.452v19.808v2v19.808v2v19.807v2.001v19.808v2v17.444
		c-0.132,0.101-0.267,0.198-0.394,0.307c-0.72-0.243-1.471-0.366-2.241-0.366c-0.276,0-0.548,0.02-0.817,0.051V75.51z
		 M187.394,58.548v2.24h-29.683v6.241h29.683v2.241h-29.683v4.239h-4.663h-2h-1.634V58.548H187.394z M187.394,62.788v2.241h-27.683
		v-2.241H187.394z M265.721,156.683h19.323c0.204,1.657,0.691,3.225,1.408,4.662h-20.73v-2.725V156.683z M312.789,146.164v8.74
		c0,6.63-5.192,12.056-11.722,12.461v-1.82l5.717-5.719l-1.713-1.713l-4.004,4.005v-14.915h-2.423v8.924l-4.17-4.169l-1.712,1.713
		l5.882,5.883v7.811c-6.529-0.405-11.721-5.831-11.721-12.461v-8.74c0-6.893,5.607-12.5,12.5-12.5h0.866
		C307.182,133.664,312.789,139.271,312.789,146.164z M337.019,120.337h12.116h11.086h11.327v24.654h-4.663v-22.414h-21.991v32.711
		h-2.239V140.75h-6.059v-20.413H337.019z M339.019,113.673h10.116v4.664h-10.116V113.673z M358.221,113.673v4.664h-7.086v-4.664
		H358.221z M377.071,186.788c-0.521-1.51-1.31-2.878-2.308-4.058h20.41v4.058H377.071z M161.681,186.788h-6.245
		c-0.059-0.778-0.215-1.528-0.457-2.24h6.367h2h8.298h2h8.409v2.24H161.681z M46.039,182.125c0.711,0,1.4,0.146,2.046,0.437
		c0.374,0.166,0.815,0.089,1.109-0.199c1.348-1.321,3.131-2.05,5.022-2.051c0.173,0,0.344,0.012,0.514,0.024v1.789v4.663H40.996
		C41.198,184.183,43.383,182.125,46.039,182.125z M57.245,94.073l4.034,28.543l-12.473,31.161l5.796-41.007L57.245,94.073z
		 M47.63,162.099l14.212-35.505l0.158,1.12v0.316v32.711h-7.269v6.664v10.933c-0.172-0.01-0.343-0.026-0.518-0.026
		c-0.395,0-0.784,0.034-1.17,0.083h-7.717L47.63,162.099z M142.75,75.509h8.298v19.809h-8.298V75.509z M142.75,140.932h8.298v0.001
		v19.808h-8.298V140.932z M142.75,97.317h8.298v19.808h-8.298V97.317z M181.942,117.125h-8.298V97.317h8.298V117.125z
		 M181.942,138.932h-8.298v-19.807h8.298V138.932z M161.346,182.548h-7.332c-0.286-0.445-0.61-0.862-0.967-1.25V162.74h8.298
		V182.548z M153.048,75.509h4.663v0.001h3.635v19.808h-8.298V75.509z M153.048,140.933L153.048,140.933l8.298-0.001v0.001v19.808
		h-8.298V140.933z M153.048,119.125h8.298v19.807h-8.298V119.125z M171.644,117.125h-8.298V97.317h8.298V117.125z M174.674,160.74
		h-1.03v-19.808v-0.001h4.782c-2.263,1.549-3.753,4.15-3.753,7.095V160.74z M163.346,140.933h8.298v19.808h-8.298V140.933z
		 M171.644,138.932h-8.298v-19.807h8.298V138.932z M171.644,75.51v19.808h-8.298V75.51H171.644z M161.346,97.317v19.808h-8.298
		V97.317H161.346z M163.346,162.74h8.298v19.808h-8.298V162.74z M173.644,162.74h1.03v3.359c0,4.285,3.158,7.838,7.268,8.479v7.969
		h-8.298V162.74z M182.053,166.822v5.752c-3.057-0.571-5.379-3.255-5.379-6.474v-18.073c0-3.636,2.957-6.593,6.59-6.593
		c3.634,0,6.591,2.957,6.591,6.593V166.1c0,3.221-2.322,5.904-5.379,6.475v-5.753H182.053z M173.644,95.317V75.51h8.298v19.808
		H173.644z M151.048,119.125v19.807h-8.298v-19.807H151.048z M151.048,162.74v16.915c-1.39-0.846-3.015-1.343-4.758-1.343
		c-1.235,0.001-2.432,0.253-3.54,0.717V162.74H151.048z M64,160.74v-9.903h6.481v9.903H64z M70.481,148.413H64v-18.384h6.481
		V148.413z M56.731,169.404H63v10.721h-6.269V169.404z M65.423,180.125v-10.721h13.538v10.721H65.423z M56.731,167.404v-4.664H62
		h10.481h8.48v-39.559v-1.634h1.635h20.173h1.634v2.846h-4.845v39.559h4.845v19.722c-0.094,0.206-0.203,0.403-0.282,0.618
		c-0.038-0.002-0.075-0.004-0.112-0.006c-1.617-2.339-4.317-3.769-7.183-3.769c-0.24,0-0.48,0.018-0.72,0.038v-56.161h-7.452v54.956
		c-0.405-0.052-0.813-0.086-1.225-0.086c-2.453,0-4.729,0.933-6.468,2.475v-14.336H56.731z M133.959,181.487
		c-0.189,0.139-0.372,0.287-0.548,0.445c-1.232-0.105-2.469,0.064-3.615,0.513c-0.985-0.368-2.015-0.555-3.066-0.555
		c-2.222,0-4.302,0.836-5.886,2.265c-1.295-3.345-4.539-5.727-8.335-5.727c-2.332,0-4.492,0.908-6.106,2.422v-12.436
		c3.287,1.388,5.787,4.406,6.346,8.089c0.082,0.537,0.572,0.912,1.118,0.841c0.465-0.06,0.855-0.075,1.229-0.051l0.129,0.008
		c0.25,0.017,0.492-0.063,0.685-0.218c2.807-2.251,6.191-3.44,9.804-3.44c3.477,0,6.85,1.18,9.583,3.312v2.788
		C134.786,180.262,134.341,180.849,133.959,181.487z M94.106,180.125h-2.69c-0.25-0.112-0.504-0.215-0.762-0.305v-53.425h3.452
		V180.125z M106.403,166.271v-2.319h0.001v-14.237c1.507,0.503,3.09,0.83,4.73,0.964v18.539
		C109.803,167.906,108.189,166.889,106.403,166.271z M101.558,138.115h2.846v11.51h-2.846V138.115z M101.558,152.048h2.846v9.904
		h-2.846V152.048z M104.404,135.692h-2.846v-9.298h2.846V135.692z M135.298,174.487c-1.524-0.99-3.193-1.728-4.94-2.207v-1.782
		c1.821-0.204,3.506-0.863,4.94-1.86V174.487z M127.935,171.801c-0.739-0.095-1.484-0.158-2.237-0.158
		c-3.926,0-7.628,1.257-10.732,3.64c-0.138-0.007-0.275-0.005-0.416,0c-0.222-0.961-0.563-1.874-0.993-2.734v-21.824
		c1.651-0.062,3.252-0.316,4.78-0.751v9.786c0,5.551,4.207,10.133,9.598,10.738V171.801z M87.429,181.265
		c1.872,0,3.685,0.682,5.104,1.92c0.313,0.272,0.763,0.323,1.129,0.128c0.973-0.521,2.067-0.795,3.163-0.795
		c2.362,0,4.577,1.26,5.782,3.287c0.189,0.317,0.528,0.521,0.904,0.488c0.008,0,0.21-0.012,0.219-0.013
		c0.281,0,0.579,0.027,0.939,0.085c0.507,0.083,0.998-0.237,1.127-0.737c0.792-3.061,3.552-5.199,6.711-5.199
		c3.632,0,6.622,2.804,6.919,6.36l-39.434-0.001C80.971,183.57,83.986,181.265,87.429,181.265z M111.134,148.68
		c-1.652-0.15-3.234-0.53-4.73-1.092v-9.574l4.73,4.729V148.68z M84.596,119.548v-5.269h11.116v5.269H84.596z M48.279,180.491
		c-0.127-0.043-0.26-0.061-0.388-0.097h0.513C48.363,180.428,48.319,180.457,48.279,180.491z M56.731,186.788v-4.663h23.823
		c-1.267,1.258-2.201,2.858-2.629,4.663H61.36H56.731z M121.422,186.788c-0.007-0.102-0.006-0.206-0.016-0.307
		c1.268-1.607,3.21-2.59,5.323-2.59c0.923,0,1.824,0.187,2.68,0.555c0.258,0.109,0.553,0.107,0.809-0.009
		c0.515-0.233,1.059-0.377,1.611-0.46c-0.443,0.866-0.698,1.819-0.753,2.811H121.422z M134.539,183.606
		c1.458-1.458,3.749-1.886,5.624-1.045c0.374,0.166,0.814,0.089,1.108-0.199c1.349-1.321,3.132-2.05,5.023-2.051
		c3.721,0,6.79,2.847,7.144,6.477h-1.194h-14.945h-4.225C133.165,185.586,133.677,184.469,134.539,183.606z M184.476,186.788
		v-12.192c1.044-0.148,2.03-0.477,2.918-0.966v13.158H184.476z M258.875,113.279h-6.481V93.683h6.481V113.279z M258.875,115.702
		v36.952h-6.481v-36.952H258.875z M283.5,154.683h-15.961v-4.058H283.5V154.683z M346.894,147.202h8.087v8.086h-8.087V147.202z
		 M366.885,152.442h17.385v2.846h-17.385V152.442z M357.404,144.779V134.48h7.481v10.299H357.404z M360.038,147.202v8.086h-2.634
		v-8.086H360.038z M364.885,132.057h-7.481v-7.48h7.481V132.057z M354.981,132.057h-8.087v-7.48h8.087V132.057z M354.981,134.48
		v10.299h-8.087V134.48H354.981z M402.53,175.369c-1.584,0-2.901-1.289-2.937-2.867v-0.145c0.025-1.596,1.343-2.893,2.984-2.893
		h0.001c1.597,0.024,2.866,1.295,2.891,2.899c0.007,0.329-0.051,0.647-0.147,0.951l-1.717-1.717l-1.713,1.713l1.813,1.813
		c-0.345,0.15-0.72,0.235-1.108,0.243l-0.067,1.001V175.369z M395.173,163.345v5.271h-45.25v-5.271H395.173z M342.654,186.788h-2
		h-4.059h-6.057h-8.709c1.621-2.654,4.501-4.302,7.701-4.302c1.229,0,2.426,0.247,3.555,0.735c0.258,0.111,0.553,0.109,0.811-0.008
		c1.599-0.727,3.396-0.913,5.103-0.535c0.474,0.104,0.952-0.145,1.139-0.591c1.498-3.587,4.977-5.904,8.86-5.904
		c2.708,0,5.198,1.121,6.979,3.028c-0.497,1.398-0.784,2.97-0.784,4.638c0,1.003,0.108,1.985,0.307,2.938H342.654z M296.01,169.404
		v-0.423c0.852,0.207,1.732,0.335,2.634,0.383v7.178c-0.302-0.025-0.603-0.053-0.909-0.053c-0.588,0-1.162,0.06-1.726,0.149v-2.572
		V169.404z M267.539,167.404v-4.06h20.117c1.184,1.645,2.7,3.029,4.454,4.06H267.539z M326.896,162.229L326.896,162.229
		c0.565,0.006,1.113,0.078,1.644,0.201V177.6c-0.534,0.12-1.083,0.19-1.643,0.196l-0.085,0.996l0,0.005v-0.005v-0.995
		c-1.825,0-3.509-0.642-4.842-1.707l5.318-5.317l-1.713-1.713l-5.243,5.242c-0.576-0.866-0.979-1.852-1.171-2.912l0.002-0.002
		l-0.003-0.003c-0.076-0.421-0.126-0.852-0.131-1.293v-0.162C319.074,165.683,322.565,162.229,326.896,162.229z M273.808,176.067
		h20.202v4.058h-20.202V176.067z M271.385,180.125h-3.846v-4.058h3.846V180.125z M324.15,181.876
		c-1.66,0.924-3.068,2.274-4.071,3.947c-0.966-1.754-2.383-3.189-4.071-4.181c1.114-0.762,2.457-1.213,3.905-1.213
		C321.49,180.429,322.967,180.962,324.15,181.876z M319.615,178.444l0.936-0.936c0.677,0.567,1.433,1.041,2.246,1.41
		c-0.911-0.312-1.879-0.49-2.884-0.49C319.813,178.429,319.715,178.44,319.615,178.444z M314.803,167.028l-1.713,1.712l2.013,2.013
		c-0.403,0.18-0.846,0.285-1.315,0.285c-1.787,0-3.24-1.453-3.24-3.24c0-1.49,1.016-2.735,2.388-3.112
		c1.011,0.423,2.087,0.717,3.201,0.893c0.297,0.314,0.527,0.686,0.68,1.098v2.243c-0.011,0.03-0.017,0.063-0.029,0.092
		L314.803,167.028z M328.539,180.533c-0.814,0.071-1.607,0.229-2.367,0.469c-0.778-0.766-1.696-1.371-2.701-1.81
		c1.045,0.384,2.168,0.604,3.341,0.604c0.004,0,0.103-0.001,0.106-0.001c0.55-0.006,1.09-0.067,1.621-0.161V180.533z
		 M313.788,173.038c1.004,0,1.959-0.29,2.787-0.813l0.242,0.242v6.526c-1.059,0.393-2.022,0.978-2.849,1.717
		c-1.113-0.378-2.295-0.585-3.512-0.585c-1.357,0-2.683,0.249-3.949,0.742c-1.389-1.843-3.294-3.163-5.44-3.845v-7.657
		c2.82-0.151,5.426-1.102,7.594-2.643c-0.073,0.348-0.113,0.707-0.113,1.076C308.548,170.688,310.898,173.038,313.788,173.038z
		 M294.01,182.125v4.452h-5.217c0.167-1.656,0.778-3.183,1.723-4.452H294.01z M296.01,182.125v-3.469
		c0.559-0.109,1.136-0.166,1.726-0.166c0.306,0,0.608,0.027,0.909,0.057v8.029h-2.634V182.125z M301.067,179.13
		c1.717,0.686,3.207,1.898,4.245,3.518c0.271,0.425,0.816,0.582,1.273,0.363c1.229-0.589,2.531-0.887,3.871-0.887
		c3.219,0,6.144,1.74,7.739,4.452h-17.128V179.13z M356.863,177.271c-0.78-0.726-1.655-1.329-2.599-1.81h3.967
		C357.723,175.983,357.26,176.587,356.863,177.271z M357.193,183.85c0-4.547,2.454-8.388,5.359-8.388s5.36,3.841,5.36,8.388
		c0,1.008-0.117,1.993-0.351,2.938h-10.02C357.311,185.845,357.193,184.859,357.193,183.85z M372.641,180.73
		c-1.1-0.82-2.33-1.463-3.647-1.896c-0.523-1.333-1.25-2.48-2.118-3.373h28.297v5.27H372.641z M316.817,163.652
		c-1.306-0.596-2.493-1.402-3.524-2.374c0.68-1.381,1.146-2.882,1.356-4.466l2.168,2.168V163.652z M294.01,169.404v4.663h-28.289
		v-4.663H294.01z M201.51,180.61h31.925c0.011,1.002,0.205,1.959,0.544,2.847h-32.47V180.61z M214.654,153.471H201.51v-0.001v-2.238
		h13.144V153.471z M216.654,155.471h21.625h4.239v3.149H201.51v-3.149H216.654z M242.914,186.67v-1.91h-2.423v1.91
		c-2.88-0.566-5.06-3.107-5.06-6.151c0-3.457,2.813-6.27,6.271-6.27c1.675,0,3.249,0.652,4.433,1.836
		c1.185,1.185,1.836,2.759,1.836,4.434C247.971,183.562,245.792,186.103,242.914,186.67z M201.51,170.313h41.009v1.979
		c-0.269-0.027-0.542-0.041-0.817-0.041c-1.35,0-2.622,0.332-3.75,0.908H201.51V170.313z M201.51,160.62h41.009v2.847H201.51V160.62
		z M244.519,160.62h5.875v2.847h-5.875V160.62z M250.394,165.467v2.846h-5.875v-2.846H250.394z M249.74,178.61
		c-0.308-1.295-0.917-2.472-1.754-3.452h2.408v3.452H249.74z M245.451,173.158c-0.3-0.154-0.612-0.287-0.932-0.404v-2.442h5.875
		v2.846H245.451z M249.967,180.61h0.427v1.515h10.481v-1.515h2.846v2.847h-14.298C249.761,182.57,249.956,181.613,249.967,180.61z
		 M263.721,170.313v2.846h-2.846v-2.846H263.721z M263.721,175.158v3.452h-2.846v-3.452H263.721z M260.875,168.313v-2.846h2.846
		v2.846H260.875z M260.875,163.467v-2.847h2.846v2.847H260.875z M201.51,165.467h41.009v2.846H201.51V165.467z M201.51,175.158
		h33.907c-0.838,0.98-1.447,2.157-1.754,3.452H201.51V175.158z M263.721,158.62h-2.846v-3.149h2.846V158.62z M258.875,155.077
		v25.048h-6.481v-25.048H258.875z M250.394,158.62h-5.875v-3.149h5.875V158.62z M247.365,153.47h-2.847v-6.479h2.847V153.47z
		 M241.914,146.991v6.479h-1.635v-6.479H241.914z M235.082,185.457c0.302,0.404,0.638,0.778,1.007,1.12H201.51v-1.12H235.082z
		 M247.313,186.577c0.369-0.342,0.705-0.716,1.007-1.12h15.401v1.12H247.313z M265.721,185.457v-3.332h22.424
		c-0.751,1.337-1.226,2.846-1.358,4.452h-21.066V185.457z M371.548,186.788h-1.942c0.199-0.954,0.308-1.936,0.308-2.938
		c0-0.898-0.09-1.765-0.242-2.596c2.339,1.125,4.241,3.08,5.27,5.535H371.548z M397.173,180.271v-6.811v-2.846v-7.652
		c2.361,2.556,5.631,4.253,9.298,4.562v1.918c-0.891-1.179-2.298-1.954-3.94-1.979c-2.679,0-4.895,2.181-4.938,4.86v0.217
		c0.06,2.662,2.274,4.828,4.937,4.828c0.007,0,0.104-0.001,0.112-0.001c0.932-0.021,1.789-0.315,2.524-0.783l1.305,1.305v2.381
		H397.173z M408.895,167.526c1.053-0.089,2.077-0.282,3.054-0.587l2.454,13.333h-5.507V167.526z M408.895,165.525v-3.35l3.388-3.388
		l-1.713-1.713l-1.675,1.675v-4.883h-2.424v11.66c-6.23-0.611-11.115-5.878-11.115-12.266c0-6.797,5.529-12.327,12.326-12.327
		s12.327,5.53,12.327,12.327C420.01,159.647,415.125,164.914,408.895,165.525z M406.803,138.977
		c-3.637,0.223-6.912,1.794-9.319,4.237l5.049-27.439L406.803,138.977z M393.943,157.288c0.303,1.031,0.715,2.014,1.23,2.935v1.122
		h-47.25v9.271h47.25v2.846h-47.25v0.778c-1.912,0.176-3.712,0.817-5.269,1.834v-18.785h2.239h19.991h2h19.385H393.943z
		 M389.115,154.683h-2.846v-4.24h-21.385v4.24h-2.847v-7.481h3.847v-0.211h23.23V154.683z M340.654,142.75v12.538v22.44
		c-0.803,0.833-1.491,1.788-2.025,2.853c-1.743-0.238-3.525-0.021-5.155,0.638c-0.944-0.365-1.926-0.595-2.935-0.687V142.75H340.654
		z M328.539,158.07c-0.486,0.781-1.049,1.51-1.695,2.158c-0.014,0-0.031,0-0.033,0c-2.985,0-5.671,1.36-7.471,3.49
		c-0.033,0.003-0.067,0.003-0.1,0.005v-8.646h-2.423v0.478l-1.554-1.554l-0.474,0.475v-8.311c0-1.563-0.256-3.065-0.715-4.477
		c0.989-0.794,2.1-1.438,3.295-1.918c0.319-0.025,0.638-0.049,0.963-0.049c4.308,0,8.083,2.285,10.207,5.699V158.07z
		 M276.231,137.904h7.269v4.058h-7.269V137.904z M273.808,141.962h-6.269v-4.058h6.269V141.962z M285.923,137.904h1.598
		c-0.646,0.929-1.181,1.937-1.598,3.006V137.904z M238.279,153.47h-21.625v-4.238H201.51v-2.241h36.77V153.47z M200.279,144.99
		l7.197-50.917l7.197,50.917H200.279z M199.51,153.471v1.999v0.001v3.149v6.847v2.846v6.846v3.236h-3.952l3.952-27.961V153.471z
		 M193.416,179.255c-0.028,0.196,0.023,0.386,0.107,0.562h-4.129v-7.708c1.52-1.551,2.461-3.671,2.461-6.009v-18.073
		c0-2.338-0.941-4.458-2.461-6.009v-28.5l0.515-3.004l7.248,42.271L193.416,179.255z M187.394,140.496
		c-1.039-0.572-2.209-0.93-3.452-1.028v-0.536v-19.807v-2V97.317v-2V75.51h3.452v0.423V140.496z M187.394,73.51h-27.683v-2.24
		h27.683V73.51z M135.298,166.056c-1.315,1.286-3.031,2.157-4.94,2.421v-7.782h-2.423v7.782c-4.285-0.594-7.598-4.271-7.598-8.717
		v-23.355c0-4.858,3.952-8.811,8.81-8.811c2.392,0,4.562,0.961,6.151,2.514V166.056z M129.147,125.594
		c-5.96,0-10.81,4.85-10.81,10.811v11.493c-1.516,0.484-3.122,0.758-4.78,0.827v-17.778h-2.423v8.37l-3.213-3.212l-1.517,1.517
		v-13.229h-0.001v-4.846h-3.634v-4.3c2.88-1.9,6.323-3.014,10.024-3.014c8.398,0,15.471,5.704,17.596,13.437
		C129.981,125.624,129.568,125.594,129.147,125.594z M100.769,119.548h-2.634v-5.269h2.634V119.548z M78.961,125.182v35.559h-6.48
		v-32.711H64v-2.848H78.961z M189.394,181.816h10.116v3.641v1.12h-10.116V181.816z M273.808,125.182h20.202v4.059h-20.202V125.182z
		 M271.385,129.24h-3.846v-4.059h3.846V129.24z M285.923,112.462h8.087v4.058h-8.087V112.462z M283.5,116.52h-15.961v-4.058H283.5
		V116.52z M267.538,79.401l24.048-10.626v8.37h-15.75v9.875h15.75v7.729l-24.048-11.185V79.401z M291.586,79.145v5.875h-13.75
		v-5.875H291.586z M278.805,99.74h15.205v4.058h-15.205V99.74z M276.382,103.798h-8.843V99.74h8.843V103.798z M244.519,75.463
		l48.551,22.277h-27.53v8.058h28.471v4.664h-28.471v8.058h28.471v4.662h-28.471v8.059h28.471v1.482
		c-1.817,0.735-3.456,1.819-4.822,3.182h-23.648v8.058h19.569c-0.11,0.72-0.185,1.452-0.185,2.202v2.461h-19.384v4.846h-4.664
		V91.683h-10.481v61.788h-1.028v-8.48h-4.847V75.463z M27.047,161.877v-55.262c0-2.455,1.998-4.453,4.453-4.453
		s4.453,1.998,4.453,4.453v55.262c0,0.709-0.577,1.286-1.286,1.286h-6.333C27.625,163.163,27.048,162.586,27.047,161.877z
		 M34.666,165.163c0.328,0,0.639-0.063,0.938-0.153l-2.893,2.893v-2.74H34.666z M32.711,171.329l13.502-13.501l-3.029,21.427
		c-0.041,0.286,0.045,0.577,0.235,0.796c0.184,0.211,0.45,0.331,0.731,0.338c-2.788,0.776-4.885,3.22-5.139,6.188h-6.3V171.329z"/>
	<path fill="#FFE000" d="M286.923,146.164v8.74c0,6.63,5.192,12.055,11.721,12.461v-7.811l-5.882-5.883l1.712-1.713l4.17,4.169
		v-8.924h2.423v14.915l4.004-4.005l1.713,1.713l-5.717,5.719v1.82c6.53-0.405,11.722-5.831,11.722-12.461v-8.74
		c0-6.893-5.607-12.5-12.5-12.5h-0.866C292.53,133.664,286.923,139.271,286.923,146.164z"/>
	<path fill="#FFE000" d="M369.671,181.253c0.152,0.832,0.242,1.698,0.242,2.596c0,1.002-0.108,1.984-0.308,2.938h1.942h3.394
		C373.912,184.333,372.01,182.379,369.671,181.253z"/>
	<path fill="#FFE000" d="M355.193,183.85c0-1.668,0.287-3.24,0.784-4.638c-1.781-1.907-4.271-3.028-6.979-3.028
		c-3.884,0-7.362,2.317-8.86,5.904c-0.187,0.446-0.665,0.694-1.139,0.591c-1.707-0.378-3.504-0.191-5.103,0.535
		c-0.258,0.117-0.553,0.119-0.811,0.008c-1.129-0.488-2.325-0.735-3.555-0.735c-3.2,0-6.08,1.647-7.701,4.302h8.709h6.057h4.059h2
		H355.5C355.301,185.835,355.193,184.853,355.193,183.85z"/>
	<path fill="#FFE000" d="M367.913,183.85c0-4.547-2.455-8.388-5.36-8.388s-5.359,3.841-5.359,8.388c0,1.01,0.117,1.995,0.35,2.938
		h10.02C367.796,185.843,367.913,184.857,367.913,183.85z"/>
	<path fill="#FFE000" d="M247.971,180.52c0-1.675-0.651-3.249-1.836-4.434c-1.184-1.184-2.758-1.836-4.433-1.836
		c-3.458,0-6.271,2.813-6.271,6.27c0,3.044,2.18,5.585,5.06,6.151v-1.91h2.423v1.91C245.792,186.103,247.971,183.562,247.971,180.52
		z"/>
	<path fill="#FFE000" d="M119.428,186.789c-0.297-3.557-3.287-6.36-6.919-6.36c-3.16,0-5.919,2.139-6.711,5.199
		c-0.129,0.5-0.62,0.82-1.127,0.737c-0.36-0.058-0.659-0.085-0.939-0.085c-0.008,0.001-0.21,0.013-0.219,0.013
		c-0.376,0.032-0.715-0.171-0.904-0.488c-1.205-2.027-3.42-3.287-5.782-3.287c-1.096,0-2.19,0.274-3.163,0.795
		c-0.366,0.195-0.816,0.145-1.129-0.128c-1.419-1.238-3.232-1.92-5.104-1.92c-3.443,0-6.458,2.306-7.436,5.523L119.428,186.789z"/>
	<path fill="#FFE000" d="M137.298,186.788h14.945h1.194c-0.354-3.63-3.423-6.477-7.144-6.477c-1.891,0.001-3.674,0.729-5.023,2.051
		c-0.294,0.288-0.734,0.365-1.108,0.199c-1.875-0.841-4.166-0.413-5.624,1.045c-0.861,0.862-1.374,1.979-1.466,3.182H137.298z"/>
	<path fill="#FFE000" d="M189.855,166.1v-18.073c0-3.636-2.957-6.593-6.591-6.593c-3.634,0-6.59,2.957-6.59,6.593V166.1
		c0,3.22,2.323,5.903,5.379,6.474v-5.752h2.423v5.753C187.533,172.004,189.855,169.32,189.855,166.1z"/>
</g>
</svg>
